<svg width="414" height="896" viewBox="0 0 414 896" fill="none" xmlns="http://www.w3.org/2000/svg">
<g clip-path="url(#clip0_32_150)">
<rect width="414" height="896" rx="24" fill="white"/>
<g clip-path="url(#clip1_32_150)">
<path d="M220.022 476.077C214.902 476.077 211.576 474.625 211.576 473.342C211.576 472.059 214.163 472.536 217.52 472.536C220.877 472.536 225.586 471.974 225.586 469.249C225.586 466.524 213.34 467.319 213.34 467.319C212.226 468.233 211.252 469.304 210.447 470.5C209.528 472.101 209.243 475.102 206.562 475.155C203.88 475.208 205.01 471.115 205.01 471.115C194.221 479.015 179.282 473.819 171.502 471.412C163.721 469.005 160.512 464.721 160.512 464.721C160.512 464.721 146.693 464.509 146.693 468.093C146.693 471.677 171.08 471.571 171.08 473.013C171.08 474.455 162.043 473.554 162.043 476.661C162.043 479.767 171.713 478.962 178.28 478.209C184.846 477.456 194.316 478.421 194.316 480.329C194.316 482.238 189.713 480.138 189.713 482.789C189.713 485.44 200.439 483.118 210.215 484.157C219.99 485.196 227.634 481.262 227.634 479.184C227.634 477.106 225.153 476.077 220.022 476.077Z" fill="#56BBCC"/>
<path d="M183.558 479.81C182.006 479.81 180.739 480.393 180.739 481.114C180.739 481.835 182.006 482.408 183.558 482.408C185.11 482.408 186.387 481.824 186.387 481.114C186.387 480.404 185.12 479.81 183.558 479.81Z" fill="#56BBCC"/>
<path d="M154.22 463.258C155.613 463.258 156.754 462.749 156.754 462.134C156.754 461.519 155.613 461.01 154.22 461.01C152.826 461.01 151.686 461.509 151.686 462.134C151.686 462.76 152.763 463.258 154.22 463.258Z" fill="#56BBCC"/>
<path d="M221.458 463.778C221.458 463.279 220.571 462.866 219.473 462.866C218.375 462.866 217.478 463.279 217.478 463.778C217.478 464.276 218.375 464.69 219.473 464.69C220.571 464.69 221.458 464.287 221.458 463.778Z" fill="#56BBCC"/>
<path d="M227.592 471.9C226.293 471.9 225.237 472.451 225.237 473.13C225.237 473.808 226.293 474.37 227.592 474.37C228.89 474.37 229.956 473.819 229.956 473.13C229.956 472.44 228.901 471.9 227.592 471.9Z" fill="#56BBCC"/>
<path d="M259.569 398.165C257.489 400.231 254.794 401.556 251.894 401.939C251.964 401.388 252.038 400.847 252.116 400.317C252.327 399.024 252.348 397.751 252.432 396.5C252.523 395.294 252.551 394.083 252.517 392.874C252.517 392.291 252.517 391.707 252.517 391.135C252.517 390.562 252.432 390.011 252.401 389.459C252.295 388.399 252.263 387.339 252.126 386.278C251.809 384.264 251.63 382.429 251.229 380.828C250.828 379.227 250.617 377.817 250.268 376.693C249.804 374.997 249.476 373.851 249.339 373.385L249.286 373.215C249.284 373.194 249.284 373.173 249.286 373.152C249.286 373.152 249.466 374.477 249.751 376.799C249.92 377.944 249.962 379.365 250.068 380.966C250.173 382.567 250.131 384.402 250.141 386.374C250.141 387.36 250.004 388.378 249.951 389.428C249.951 389.968 249.888 390.488 249.825 391.039C249.761 391.591 249.677 392.1 249.582 392.672C249.452 393.809 249.262 394.938 249.012 396.055C248.748 397.189 248.558 398.366 248.178 399.511C247.967 400.264 247.745 401.017 247.502 401.759C246.217 401.5 244.978 401.046 243.828 400.413C237.008 396.617 230.326 388.007 238.74 368.603C238.74 368.603 245.074 355.73 241.369 344.968C241.337 345 283.882 373.841 259.569 398.165Z" fill="#34C759"/>
<path d="M232.163 413.349C231.806 413.734 231.418 414.089 231.001 414.409C230.79 412.935 230.6 411.482 230.368 410.168C229.977 408.715 229.619 407.305 229.312 405.926C229.006 404.548 228.404 403.435 228.003 402.321C227.66 401.311 227.247 400.326 226.768 399.373C226.346 398.525 225.966 397.794 225.66 397.179C225.216 396.277 224.9 395.673 224.773 395.418V395.334C224.773 395.493 224.952 396.203 225.195 397.38C225.332 398.027 225.491 398.822 225.681 399.734C225.902 400.751 226.05 401.782 226.124 402.82C226.209 403.943 226.399 405.152 226.451 406.446C226.504 407.739 226.451 409.065 226.451 410.443C226.451 411.822 226.135 413.232 225.987 414.685L225.638 416.222C224.503 416.191 223.386 415.928 222.355 415.448C217.868 413.327 213.297 408.089 217.89 395.45C217.89 395.45 221.437 387.031 218.66 380.341C219.23 380.691 246.499 397.104 232.163 413.349Z" fill="#34C759"/>
<path d="M249.751 414.356C249.447 415.027 249.251 415.743 249.17 416.477C250.12 416.148 251.07 415.84 252.01 415.533C253.14 415.151 254.29 414.875 255.378 414.557C256.465 414.239 257.542 414.027 258.545 413.773C259.548 413.518 260.508 413.349 261.395 413.19C262.282 413.03 263.095 412.861 263.813 412.765L265.681 412.522L267.307 412.299L265.776 412.871L264.024 413.529C263.348 413.783 262.599 414.123 261.786 414.473C260.973 414.822 260.086 415.194 259.189 415.649C258.291 416.105 257.31 416.53 256.349 417.07C255.388 417.611 254.375 418.131 253.393 418.714C252.411 419.297 251.398 419.88 250.426 420.538L250.036 420.803C250.43 421.525 250.948 422.171 251.567 422.711C254.734 425.426 260.276 427.175 268.374 419.318C268.374 419.318 273.652 413.72 279.659 413.582C279.659 413.582 257.331 397.582 249.751 414.356Z" fill="#34C759"/>
<path d="M213.688 438.733L213.012 439.274C212.968 439.184 212.911 439.102 212.843 439.03L213.128 438.934L213.688 438.733Z" fill="#34C759"/>
<path d="M265.713 412.628L263.887 413.009C263.158 413.147 262.377 413.38 261.522 413.592C260.667 413.805 259.717 414.038 258.756 414.366C257.795 414.695 256.729 414.95 255.684 415.342C254.639 415.734 253.52 416.074 252.432 416.53C251.345 416.985 250.236 417.388 249.16 417.887C248.104 418.343 247.048 418.83 246.077 419.308C245.106 419.785 243.871 420.368 242.825 420.983L242.54 421.153C243.153 420.251 243.744 419.308 244.303 418.375C244.863 417.441 245.496 416.254 246.045 415.194C247.268 412.769 248.299 410.252 249.128 407.665C249.329 407.029 249.55 406.393 249.73 405.757C249.909 405.12 250.046 404.474 250.194 403.837C250.371 403.235 250.512 402.622 250.617 402.003C250.743 401.356 250.859 400.688 250.965 400.052C251.229 398.812 251.303 397.56 251.44 396.352C251.575 395.169 251.649 393.979 251.662 392.789C251.662 392.216 251.662 391.644 251.714 391.082C251.767 390.52 251.714 390.021 251.714 389.417C251.651 388.357 251.662 387.296 251.556 386.236C251.334 384.232 251.229 382.387 250.902 380.797C250.574 379.206 250.437 377.785 250.131 376.651C249.73 374.954 249.476 373.788 249.36 373.311L249.307 373.141C249.36 373.417 249.571 374.679 249.909 376.683C250.141 377.838 250.247 379.249 250.416 380.85C250.585 382.451 250.638 384.285 250.743 386.268C250.743 387.254 250.743 388.293 250.68 389.364C250.68 389.894 250.68 390.424 250.627 390.986C250.574 391.548 250.511 392.047 250.469 392.662C250.353 393.786 250.268 394.952 250.036 396.108C249.804 397.263 249.666 398.483 249.35 399.67C249.17 400.402 248.991 401.155 248.79 401.886C248.663 402.364 248.537 402.82 248.378 403.286C248.22 403.753 248.009 404.484 247.808 405.099C247.608 405.714 247.344 406.276 247.122 406.881C246.18 409.29 245.054 411.622 243.754 413.858C242.444 416.086 240.969 418.213 239.342 420.219L238.782 420.877C238.676 421.015 238.56 421.142 238.444 421.269C237.113 422.815 235.704 424.291 234.221 425.691C232.67 427.133 231.054 428.448 229.534 429.646C229.387 429.778 229.231 429.902 229.07 430.017C229.017 430.072 228.957 430.118 228.89 430.155C227.76 431.003 226.641 431.766 225.543 432.487C226.181 431.199 226.745 429.875 227.233 428.522C227.338 428.225 227.444 427.907 227.56 427.599C227.573 427.552 227.59 427.506 227.613 427.461C227.739 427.101 227.866 426.719 227.982 426.401C228.172 425.638 228.362 424.896 228.552 424.121L228.837 422.976L229.017 421.799L229.344 419.435C229.46 418.046 229.481 416.657 229.523 415.3C229.523 415.109 229.523 414.907 229.523 414.716C229.397 413.168 229.323 411.652 229.165 410.199C229.006 408.747 228.637 407.368 228.404 406.054C228.172 404.739 227.697 403.562 227.349 402.448C227.072 401.43 226.719 400.434 226.293 399.469C225.945 398.589 225.638 397.847 225.375 397.221C224.984 396.288 224.731 395.652 224.636 395.397V395.312C224.636 395.461 224.878 396.171 225.206 397.295C225.396 397.946 225.617 398.72 225.871 399.617C226.168 400.611 226.394 401.624 226.546 402.65C226.736 403.774 227.011 404.983 227.159 406.266C227.307 407.549 227.359 408.916 227.454 410.327C227.549 411.737 227.37 413.19 227.328 414.653C227.264 415.119 227.201 415.586 227.148 416.042C227.011 417.039 226.853 418.046 226.673 419.032L226.124 421.153L225.85 422.213L225.48 423.273C225.227 423.952 224.984 424.63 224.741 425.288C224.498 425.945 224.139 426.55 223.854 427.165C223.279 428.335 222.637 429.471 221.933 430.568C221.722 430.851 221.521 431.137 221.331 431.427C220.886 432.103 220.399 432.751 219.874 433.368C219.558 433.76 219.251 434.12 218.956 434.428C218.66 434.735 218.27 435.181 217.9 435.488C217.388 436.021 216.849 436.527 216.285 437.004C215.831 437.407 215.472 437.704 215.229 437.853L214.828 438.139L213.551 438.648L212.875 439.189C212.831 439.099 212.774 439.017 212.706 438.945C212.222 438.362 211.604 437.907 210.906 437.618C210.207 437.33 209.449 437.217 208.698 437.289C207.946 437.361 207.223 437.616 206.591 438.032C205.96 438.448 205.439 439.013 205.073 439.676C205.102 439.46 205.049 439.24 204.923 439.061C204.798 438.883 204.61 438.758 204.398 438.712C200.01 437.864 195.531 437.6 191.075 437.927C184.74 438.415 182.692 435.35 182.629 435.223C182.517 435.055 182.352 434.93 182.159 434.87C181.967 434.811 181.76 434.819 181.573 434.894C181.378 434.981 181.221 435.137 181.133 435.333C181.046 435.529 181.033 435.75 181.098 435.955C181.821 437.811 182.959 439.476 184.423 440.822C185.887 442.167 187.639 443.157 189.544 443.716C187.085 445.19 184.913 447.102 183.136 449.357C180.76 452.305 178.322 453.917 175.915 454.15C174.479 454.323 173.031 453.944 171.861 453.09C171.726 452.973 171.558 452.9 171.381 452.881C171.204 452.862 171.025 452.898 170.868 452.984C170.713 453.071 170.587 453.205 170.508 453.365C170.429 453.526 170.4 453.707 170.425 453.885C170.425 454.033 170.985 457.267 175.862 458.232C172.878 460.2 169.282 461.006 165.748 460.501C163.742 460.17 161.858 459.31 160.29 458.009C160.146 457.883 159.965 457.808 159.775 457.794C159.584 457.781 159.395 457.83 159.235 457.935C159.073 458.052 158.956 458.221 158.904 458.414C158.852 458.608 158.868 458.813 158.95 458.996C160.217 461.341 161.957 463.396 164.059 465.029C167.363 467.69 173.223 470.871 182.407 470.924C185.483 472.382 188.846 473.125 192.247 473.098C195.129 473.087 197.987 472.57 200.692 471.571C202.904 470.795 204.939 469.584 206.678 468.008C206.438 469.409 206.318 470.828 206.319 472.25C206.324 472.469 206.41 472.678 206.56 472.837C206.71 472.996 206.914 473.093 207.132 473.108H207.185C207.393 473.109 207.595 473.034 207.754 472.898C207.913 472.762 208.018 472.573 208.05 472.366C208.05 472.366 208.62 469.291 213.91 464.827C216.486 462.654 217.52 459.473 216.897 455.645C216.65 454.183 216.221 452.758 215.62 451.404C216.563 450.841 217.328 450.021 217.826 449.039C218.139 448.502 218.328 447.9 218.377 447.28C218.426 446.659 218.335 446.036 218.111 445.455C217.727 444.562 217.116 443.787 216.338 443.207C216.718 443.027 217.161 442.815 217.626 442.571C217.805 442.486 218.006 442.391 218.185 442.285V442.338L218.386 442.168C221.065 440.759 223.65 439.175 226.124 437.429C226.195 437.389 226.262 437.343 226.325 437.291C227.958 436.16 229.643 434.859 231.382 433.389C231.468 433.305 231.56 433.227 231.656 433.155C233.356 431.682 235.066 430.038 236.755 428.267L237.315 427.642C237.821 427.218 238.37 426.772 239.004 426.295C240.376 425.235 242.044 424.026 243.871 422.828L243.955 422.764C245.665 421.704 247.513 420.527 249.424 419.477C249.55 419.424 249.666 419.339 249.772 419.286C250.828 418.693 251.883 418.226 252.939 417.675C253.995 417.123 255.05 416.699 256.022 416.233C256.993 415.766 258.038 415.395 258.967 415.013C259.896 414.632 260.804 414.313 261.638 414.017C262.472 413.72 263.243 413.444 263.94 413.243L265.724 412.712C266.463 412.49 266.969 412.352 267.181 412.278L265.713 412.628ZM212.801 463.523C211.205 464.835 209.764 466.326 208.504 467.966C208.75 466.528 209.205 465.135 209.856 463.831V463.831C210.629 462.268 211.068 460.559 211.144 458.815C211.144 458.584 211.053 458.361 210.891 458.197C210.729 458.032 210.509 457.938 210.278 457.935C210.047 457.941 209.828 458.037 209.668 458.204C209.508 458.371 209.42 458.594 209.423 458.826C209.423 458.9 209.423 466.598 200.101 470.002C195.911 471.544 191.362 471.813 187.021 470.776C201.294 469.206 206.604 460.109 206.604 453.811C206.618 453.688 206.605 453.563 206.568 453.445C206.53 453.328 206.468 453.219 206.386 453.127C206.304 453.035 206.203 452.961 206.091 452.911C205.978 452.86 205.856 452.834 205.733 452.834C205.61 452.834 205.488 452.86 205.376 452.911C205.263 452.961 205.163 453.035 205.08 453.127C204.998 453.219 204.936 453.328 204.899 453.445C204.861 453.563 204.849 453.688 204.862 453.811C204.862 460.013 198.94 469.238 182.618 469.238C173.856 469.238 168.324 466.269 165.22 463.778C164.361 463.104 163.562 462.356 162.835 461.54C163.661 461.862 164.517 462.103 165.389 462.261C170.467 463.173 175.102 461.084 178.649 458.561H178.755C178.957 458.56 179.153 458.488 179.308 458.359C179.464 458.229 179.571 458.05 179.61 457.85C180.19 457.394 180.75 456.939 181.267 456.483C193.091 445.996 202.001 448.689 202.128 448.742C202.349 448.813 202.589 448.794 202.796 448.689C203.004 448.584 203.162 448.401 203.236 448.18C203.297 447.967 203.274 447.738 203.172 447.54C203.07 447.343 202.897 447.193 202.687 447.12C202.286 446.982 192.785 443.939 180.106 455.21C179.451 455.793 178.776 456.334 178.121 456.833C176.809 456.805 175.514 456.521 174.31 455.995C174.892 456.059 175.48 456.059 176.063 455.995C178.987 455.73 181.837 453.874 184.508 450.555C191.043 442.465 198.032 443.133 198.338 443.186C198.567 443.21 198.796 443.144 198.977 443.002C199.159 442.859 199.278 442.652 199.309 442.423C199.324 442.308 199.316 442.192 199.286 442.081C199.255 441.97 199.203 441.866 199.132 441.775C199.062 441.684 198.974 441.609 198.874 441.552C198.773 441.496 198.663 441.46 198.549 441.447C196.28 441.312 194.012 441.719 191.93 442.635V442.635C189.343 442.16 186.961 440.906 185.099 439.04C187.107 439.743 189.245 439.993 191.36 439.772C195.647 439.477 199.954 439.734 204.176 440.535C204.314 440.567 204.457 440.564 204.593 440.527C204.729 440.49 204.854 440.42 204.957 440.323C204.888 440.489 204.828 440.659 204.778 440.832C203.532 444.724 205.337 447.099 206.72 448.032C207.03 449.116 207.649 450.085 208.501 450.819C209.353 451.554 210.4 452.023 211.513 452.167C211.896 452.242 212.285 452.281 212.674 452.284C213.126 452.28 213.575 452.226 214.015 452.125C214.592 453.363 214.994 454.676 215.208 456.027C215.715 459.218 214.902 461.784 212.801 463.523ZM216.507 446.166C216.639 446.511 216.69 446.882 216.655 447.25C216.62 447.618 216.501 447.973 216.306 448.286C215.858 449.163 215.107 449.845 214.195 450.205H214.121C213.37 450.476 212.56 450.538 211.777 450.386C210.952 450.3 210.175 449.954 209.557 449.398C208.939 448.842 208.511 448.104 208.335 447.29C208.318 447.149 208.266 447.014 208.183 446.899C208.099 446.784 207.989 446.692 207.86 446.632C207.744 446.579 205.147 445.222 206.393 441.331C206.552 440.694 206.918 440.129 207.432 439.724C207.946 439.319 208.579 439.097 209.233 439.093C209.478 439.098 209.723 439.13 209.961 439.189C210.432 439.3 210.865 439.534 211.218 439.867C210.834 440.239 210.571 440.718 210.463 441.242C210.356 441.766 210.409 442.311 210.616 442.804C210.891 443.457 211.411 443.973 212.064 444.241C212.717 444.509 213.448 444.507 214.1 444.236L214.49 444.077C215.359 444.55 216.062 445.279 216.507 446.166V446.166Z" fill="#34C759"/>
<path d="M116.806 522.891L108.423 512.733H104V531.797H109.257V521.64L117.64 531.797H122.063V512.733H116.806V522.891Z" fill="#34C759"/>
<path d="M131.406 524.142H139.841V520.113H131.406V516.9H140.981V512.733H126.096V531.797H141.34V527.63H131.406V524.142Z" fill="#34C759"/>
<path d="M164.661 531.766L156.215 512.68H150.937L142.607 531.766H148.086L149.564 528.065H157.598L159.076 531.766H164.661ZM151.137 524.089L153.576 517.981L156.004 524.078L151.137 524.089Z" fill="#34C759"/>
<path d="M162.497 517.006H168.324V531.797H173.698V517.006H179.504V512.733H162.497V517.006Z" fill="#34C759"/>
<path d="M201.727 529.56L204.26 532.105L205.728 530.355L203.141 527.779C203.979 526.453 204.553 524.977 204.831 523.432L202.719 522.753C202.496 523.948 202.087 525.101 201.505 526.167L196.849 521.512C197.479 521.162 198.089 520.776 198.676 520.357C199.353 519.88 199.928 519.27 200.365 518.565C200.719 517.949 200.901 517.25 200.893 516.539C200.924 515.798 200.728 515.066 200.331 514.44C199.935 513.814 199.357 513.326 198.676 513.04C197.885 512.706 197.032 512.543 196.174 512.563C195.249 512.544 194.331 512.725 193.482 513.093C192.754 513.416 192.132 513.937 191.687 514.599C191.257 515.268 191.036 516.051 191.054 516.847C191.051 517.338 191.133 517.826 191.296 518.289C191.484 518.809 191.747 519.299 192.078 519.742C192.466 520.255 192.889 520.74 193.344 521.194C192.566 521.629 191.818 522.118 191.106 522.658C190.369 523.213 189.751 523.913 189.291 524.715C188.908 525.435 188.712 526.241 188.72 527.058C188.703 527.995 189.009 528.909 189.586 529.645C190.206 530.424 191.018 531.027 191.94 531.395C193.029 531.826 194.191 532.038 195.361 532.02C196.872 532.028 198.361 531.664 199.7 530.96C200.438 530.592 201.121 530.121 201.727 529.56ZM194.21 515.119C194.771 514.66 195.483 514.429 196.205 514.472C196.881 514.431 197.549 514.639 198.085 515.055C198.296 515.245 198.463 515.479 198.574 515.741C198.685 516.003 198.738 516.287 198.729 516.571C198.735 517.023 198.599 517.465 198.338 517.833C197.972 518.323 197.521 518.743 197.008 519.074C196.497 519.427 195.969 519.752 195.424 520.049C194.97 519.583 194.58 519.169 194.368 518.851C194.096 518.535 193.875 518.177 193.714 517.791C193.597 517.475 193.536 517.141 193.534 516.805C193.513 516.492 193.561 516.179 193.674 515.888C193.787 515.596 193.963 515.334 194.189 515.119H194.21ZM195.561 529.836C194.798 529.852 194.038 529.723 193.323 529.454C192.738 529.242 192.221 528.875 191.824 528.394C191.477 527.937 191.292 527.378 191.296 526.803C191.295 526.258 191.433 525.721 191.698 525.245C192.037 524.686 192.481 524.2 193.007 523.813C193.582 523.391 194.185 523.008 194.812 522.668L200.207 528.055C199.798 528.449 199.341 528.787 198.845 529.062C197.824 529.59 196.689 529.856 195.54 529.836H195.561Z" fill="#34C759"/>
<path d="M229.523 525.478C228.967 526.161 228.282 526.726 227.507 527.143C226.745 527.531 225.901 527.727 225.047 527.715C224.326 527.719 223.611 527.589 222.936 527.334C222.312 527.102 221.744 526.74 221.268 526.273C220.809 525.771 220.45 525.184 220.212 524.545C219.691 523.099 219.691 521.516 220.212 520.07C220.453 519.433 220.811 518.847 221.268 518.342C221.744 517.875 222.312 517.514 222.936 517.282C223.611 517.026 224.326 516.897 225.047 516.9C225.901 516.888 226.745 517.085 227.507 517.473C228.282 517.889 228.967 518.455 229.523 519.137L232.944 516.03C232.026 514.867 230.837 513.95 229.481 513.358C226.65 512.202 223.494 512.13 220.613 513.157C219.382 513.607 218.257 514.307 217.309 515.214C216.368 516.11 215.624 517.194 215.124 518.395C214.601 519.659 214.332 521.013 214.332 522.382C214.332 523.75 214.601 525.105 215.124 526.369C215.624 527.57 216.368 528.653 217.309 529.55C218.257 530.457 219.382 531.157 220.613 531.607C221.944 532.1 223.354 532.345 224.773 532.328C226.391 532.358 227.996 532.04 229.481 531.395C230.83 530.797 232.017 529.884 232.944 528.733L229.523 525.478Z" fill="#34C759"/>
<path d="M240.693 512.733H235.319V531.797H249.751V527.524H240.693V512.733Z" fill="#34C759"/>
<path d="M266.959 527.63H257.035V524.142H265.47V520.113H257.035V516.9H266.61V512.733H251.714V531.797H266.959V527.63Z" fill="#34C759"/>
<path d="M276.597 512.733L268.236 531.766H273.715L275.193 528.065H283.248L284.726 531.766H290.311L281.865 512.68L276.597 512.733ZM276.766 524.121L279.194 518.024L281.633 524.121H276.766Z" fill="#34C759"/>
<path d="M304.743 512.733V522.891L296.36 512.733H291.937V531.797H297.205V521.64L305.577 531.797H310V512.733H304.743Z" fill="#34C759"/>
<path d="M133.064 545.9H138.617V544.543H133.064V541.128H139.292V539.739H131.48V550.873H139.514V549.484H133.064V545.9Z" fill="#56BBCC"/>
<path d="M153.09 548.031L146.439 539.739H145.141V550.873H146.724V542.581L153.375 550.873H154.663V539.739H153.09V548.031Z" fill="#56BBCC"/>
<path d="M165.379 548.89L161.388 539.739H159.678L164.545 550.873H166.118L170.974 539.739H169.39L165.379 548.89Z" fill="#56BBCC"/>
<path d="M177.572 539.75H175.989V550.873H177.572V539.75Z" fill="#56BBCC"/>
<path d="M190.906 547.024C191.554 546.751 192.106 546.29 192.489 545.698C192.882 545.063 193.077 544.325 193.049 543.578C193.074 542.831 192.879 542.093 192.489 541.457C192.107 540.862 191.555 540.397 190.906 540.121C190.12 539.796 189.274 539.641 188.425 539.665H184.107V550.852H185.691V547.469H188.425C188.651 547.459 188.876 547.438 189.1 547.406L191.508 550.852H193.281L190.642 547.098C190.731 547.078 190.819 547.053 190.906 547.024V547.024ZM188.372 546.133H185.691V541.128H188.372C189.192 541.071 190.006 541.303 190.673 541.786C190.939 542.008 191.148 542.29 191.286 542.609C191.423 542.927 191.485 543.274 191.465 543.62C191.485 543.97 191.424 544.319 191.286 544.641C191.149 544.963 190.939 545.249 190.673 545.476C190.006 545.958 189.192 546.191 188.372 546.133V546.133Z" fill="#56BBCC"/>
<path d="M208.135 541.234C207.595 540.717 206.96 540.31 206.266 540.036C205.521 539.754 204.73 539.614 203.933 539.623C203.129 539.613 202.33 539.757 201.579 540.047C200.884 540.32 200.249 540.727 199.71 541.245C199.184 541.758 198.765 542.371 198.475 543.048C197.884 544.495 197.884 546.117 198.475 547.565C198.762 548.243 199.182 548.856 199.71 549.367C200.247 549.889 200.882 550.296 201.579 550.565C202.329 550.858 203.128 551.005 203.933 551C204.731 551.011 205.523 550.867 206.266 550.576C206.96 550.305 207.594 549.902 208.135 549.388C208.661 548.875 209.081 548.262 209.37 547.586C209.947 546.125 209.947 544.498 209.37 543.037C209.083 542.359 208.663 541.746 208.135 541.234V541.234ZM207.892 547.013C207.683 547.52 207.378 547.98 206.995 548.37C206.603 548.757 206.141 549.063 205.633 549.272C205.091 549.483 204.514 549.591 203.933 549.59C203.345 549.591 202.762 549.483 202.212 549.272C201.186 548.849 200.367 548.038 199.932 547.013C199.717 546.47 199.609 545.89 199.615 545.306C199.609 544.725 199.717 544.149 199.932 543.61C200.146 543.1 200.458 542.639 200.851 542.252C201.239 541.863 201.703 541.556 202.212 541.351C202.76 541.135 203.345 541.027 203.933 541.033C204.515 541.027 205.092 541.135 205.633 541.351C206.141 541.556 206.603 541.861 206.991 542.249C207.38 542.637 207.686 543.1 207.892 543.61C208.116 544.146 208.227 544.724 208.219 545.306C208.227 545.892 208.116 546.473 207.892 547.013V547.013Z" fill="#56BBCC"/>
<path d="M223.464 548.042L216.823 539.739H215.525V550.873H217.108V542.581L223.749 550.873H225.047V539.739H223.464V548.042Z" fill="#56BBCC"/>
<path d="M242.044 539.739L237.484 547.565L232.87 539.739H231.572V550.873H233.092V542.814L237.093 549.516H237.821L241.822 542.761L241.844 550.873H243.364L243.343 539.739H242.044Z" fill="#56BBCC"/>
<path d="M251.472 545.9H257.025V544.543H251.472V541.128H257.7V539.739H249.888V550.873H257.922V549.484H251.472V545.9Z" fill="#56BBCC"/>
<path d="M271.488 548.031L264.847 539.739H263.549V550.873H265.132V542.581L271.773 550.873H273.071V539.739H271.488V548.031Z" fill="#56BBCC"/>
<path d="M278.128 541.128H281.929V550.873H283.491V541.128H287.292V539.739H278.128V541.128Z" fill="#56BBCC"/>
</g>
<path d="M175.031 782.681C166.665 788.065 156.768 790.564 146.849 789.795C147.469 788.018 148.093 786.278 148.722 784.576C150.329 780.438 151.29 776.237 152.446 772.151C153.592 768.217 154.533 764.227 155.263 760.195C155.671 758.263 156.079 756.331 156.48 754.433C156.88 752.536 156.985 750.65 157.265 748.801C157.656 745.213 158.292 741.678 158.577 738.068C158.932 731.171 159.618 724.967 159.403 719.38C159.188 713.793 159.472 708.972 159.098 705.003C158.739 699.056 158.451 695.032 158.321 693.389L158.264 692.79C158.271 692.719 158.286 692.648 158.308 692.58C158.308 692.58 157.979 697.097 157.303 704.991C157.064 708.904 156.211 713.642 155.442 719.021C154.673 724.4 153.25 730.448 151.905 736.99C151.215 740.257 150.047 743.534 149.137 746.975C148.759 748.766 148.184 750.443 147.588 752.226C146.991 754.008 146.354 755.635 145.638 757.466C144.41 761.141 142.986 764.748 141.374 768.272C139.703 771.846 138.247 775.612 136.181 779.139C134.952 781.485 133.687 783.824 132.36 786.113C128.264 784.35 124.459 781.975 121.076 779.07C101.036 761.701 84.8198 728.479 126.393 670.098C126.393 670.098 156.477 631.898 151.674 593.635C151.546 593.718 272.955 719.168 175.031 782.681Z" fill="#34C759" fill-opacity="0.1"/>
<path d="M73.2064 813.735C71.75 814.763 70.209 815.666 68.6001 816.433C68.9284 811.401 69.3122 806.455 69.459 801.935C69.1752 796.847 68.9672 791.923 68.9125 787.14C68.8579 782.358 67.6341 778.246 67.0779 774.276C66.6418 770.688 65.9573 767.134 65.0293 763.641C64.2174 760.534 63.4644 757.843 62.8757 755.59C62.0306 752.292 61.3994 750.067 61.1558 749.135L61.2152 748.854C61.1039 749.381 61.2042 751.861 61.189 755.931C61.1933 758.171 61.164 760.917 61.1585 764.072C61.1832 767.595 60.9551 771.116 60.4757 774.607C59.9706 778.39 59.7575 782.529 59.0282 786.852C58.299 791.175 57.1963 795.53 56.2321 800.097C55.2679 804.664 53.2274 809.114 51.7195 813.823L49.4846 818.673C45.7278 817.772 42.1942 816.114 39.0999 813.801C25.6521 803.623 14.1038 783.056 38.2274 744.405C38.2274 744.405 55.9208 719.002 51.3611 694.883C53.0135 696.442 132.279 769.985 73.2064 813.735Z" fill="#34C759" fill-opacity="0.1"/>
<path d="M131.032 829.43C129.55 831.441 128.397 833.675 127.616 836.048C131.008 835.627 134.385 835.275 137.727 834.917C141.753 834.446 145.776 834.341 149.617 834.05C153.458 833.76 157.19 833.814 160.705 833.676C164.221 833.537 167.536 833.65 170.599 833.746C173.661 833.842 176.485 833.851 178.941 834.039L185.33 834.544L190.896 834.948L185.401 835.77L179.109 836.717C176.683 837.086 173.951 837.683 171.001 838.272C168.051 838.86 164.841 839.466 161.535 840.347C158.23 841.227 154.666 841.942 151.091 843.059C147.516 844.176 143.78 845.185 140.104 846.428C136.429 847.67 132.649 848.891 128.957 850.387L127.471 850.99C128.277 853.66 129.55 856.165 131.23 858.39C139.871 869.609 157.092 879.299 189.534 858.955C189.534 858.955 211.017 844.114 231.103 847.877C231.103 847.877 167.991 779.176 131.032 829.43Z" fill="#34C759" fill-opacity="0.1"/>
<path d="M185.361 834.918L179.016 834.899C176.496 834.844 173.733 835.068 170.738 835.17C167.744 835.272 164.419 835.377 160.992 835.792C157.565 836.206 153.839 836.3 150.087 836.865C146.334 837.431 142.373 837.769 138.435 838.516C134.498 839.262 130.527 839.819 126.595 840.713C122.763 841.482 118.908 842.357 115.342 843.255C111.776 844.154 107.258 845.218 103.35 846.522L102.282 846.884C104.951 844.328 107.578 841.616 110.093 838.918C112.607 836.219 115.546 832.729 118.115 829.602C123.879 822.428 129.07 814.812 133.639 806.824C134.752 804.857 135.935 802.905 136.977 800.923C138.019 798.941 138.928 796.894 139.865 794.89C140.875 793.018 141.773 791.088 142.554 789.109C143.428 787.055 144.281 784.923 145.078 782.889C146.824 778.964 147.945 774.871 149.247 770.962C150.525 767.138 151.603 763.249 152.477 759.313C152.878 757.416 153.278 755.519 153.847 753.694C154.416 751.869 154.588 750.181 155.011 748.178C155.542 744.621 156.319 741.115 156.709 737.527C157.373 730.732 158.313 724.544 158.336 719.045C158.359 713.545 158.897 708.741 158.671 704.767C158.523 698.864 158.496 694.821 158.443 693.158L158.386 692.559C158.369 693.51 158.189 697.839 157.911 704.716C157.876 708.709 157.241 713.455 156.683 718.879C156.125 724.303 155.018 730.418 153.982 737.062C153.292 740.329 152.565 743.772 151.605 747.276C151.235 749.032 150.864 750.789 150.295 752.614C149.726 754.439 149.167 756.046 148.596 758.054C147.423 761.696 146.326 765.501 144.745 769.167C143.164 772.834 141.854 776.777 139.969 780.49C138.86 782.788 137.737 785.156 136.557 787.439C135.802 788.931 135.061 790.353 134.208 791.787C133.355 793.222 132.14 795.498 131.043 797.395C129.945 799.291 128.674 800.968 127.513 802.815C122.692 810.135 117.314 817.073 111.425 823.566C105.506 830.029 99.1098 836.039 92.2901 841.545L89.9682 843.33C89.5205 843.712 89.045 844.052 88.5695 844.392C83.0586 848.579 77.3358 852.478 71.4238 856.076C65.2507 859.763 58.9557 862.985 53.0586 865.887C52.4748 866.223 51.872 866.525 51.2531 866.79C51.0402 866.935 50.8063 867.047 50.5595 867.121C46.207 869.138 41.9489 870.881 37.7908 872.499C40.8145 868.678 43.6175 864.687 46.186 860.546C46.745 859.637 47.3188 858.657 47.9203 857.72C47.9966 857.571 48.0878 857.43 48.1924 857.3C48.8662 856.194 49.5547 855.019 50.1637 854.046C51.3301 851.65 52.4817 849.325 53.6555 846.893L55.4051 843.299L56.8256 839.526L59.5687 831.921C60.9268 827.4 61.9687 822.813 63.0586 818.346C63.1921 817.713 63.333 817.046 63.4665 816.413C64.1278 811.195 64.9425 806.119 65.4316 801.195C65.9208 796.271 65.6553 791.444 65.8021 786.924C65.9489 782.405 65.1912 778.171 64.8106 774.238C64.6003 770.669 64.1226 767.121 63.3816 763.624C62.8378 760.463 62.3381 757.789 61.8974 755.53C61.2502 752.164 60.8521 749.878 60.7139 748.968L60.7732 748.687C60.6694 749.179 60.9805 751.704 61.2834 755.658C61.4609 757.946 61.6572 760.666 61.8724 763.819C62.1673 767.319 62.2098 770.835 61.9996 774.341C61.8458 778.199 61.9137 782.397 61.5081 786.752C61.1025 791.106 60.3214 795.676 59.6512 800.415C58.9809 805.154 57.3675 809.841 56.2035 814.66C55.6663 816.161 55.1292 817.663 54.6346 819.136C53.4807 822.342 52.2491 825.568 50.9621 828.71L47.6518 835.35L45.9967 838.671L44.0254 841.924C42.7075 843.995 41.4248 846.073 40.1569 848.08C38.889 850.088 37.2718 851.838 35.893 853.676C33.1585 857.149 30.2288 860.463 27.1181 863.603C26.2176 864.392 25.3499 865.199 24.5148 866.026C22.5595 867.954 20.487 869.759 18.3092 871.432C16.9808 872.509 15.7098 873.489 14.5111 874.3C13.3123 875.111 11.7009 876.312 10.2561 877.071C8.17964 878.478 6.03141 879.776 3.82023 880.961C2.0277 881.977 0.625536 882.708 -0.286343 883.029L-1.82159 883.696L-6.42862 884.485L-9.05536 885.802C-9.13884 885.475 -9.27083 885.163 -9.4469 884.875C-10.6493 882.605 -12.3871 880.663 -14.5097 879.216C-16.6323 877.769 -19.0756 876.862 -21.6281 876.572C-24.1805 876.283 -26.7651 876.62 -29.1578 877.555C-31.5505 878.49 -33.6791 879.994 -35.3592 881.937C-35.1119 881.239 -35.1365 880.474 -35.4281 879.794C-35.7197 879.113 -36.2569 878.567 -36.9328 878.265C-50.9407 872.374 -65.6632 868.353 -80.7208 866.305C-102.141 863.471 -106.813 851.879 -106.935 851.413C-107.189 850.777 -107.654 850.248 -108.252 849.915C-108.85 849.581 -109.544 849.464 -110.219 849.582C-110.93 849.732 -111.561 850.14 -111.99 850.727C-112.418 851.314 -112.615 852.039 -112.541 852.762C-111.434 859.42 -108.814 865.736 -104.882 871.223C-100.951 876.71 -95.8133 881.222 -89.8646 884.412C-99.0799 887.568 -107.643 892.376 -115.136 898.6C-125.102 906.698 -134.345 910.325 -142.519 909.407C-147.419 908.971 -151.973 906.699 -155.268 903.046C-155.635 902.563 -156.141 902.204 -156.718 902.017C-157.295 901.83 -157.915 901.823 -158.496 901.997C-159.075 902.179 -159.587 902.532 -159.962 903.009C-160.338 903.486 -160.561 904.066 -160.602 904.672C-160.706 905.164 -161.106 916.272 -145.55 922.896C-156.856 927.318 -169.387 927.465 -180.794 923.309C-187.239 920.8 -192.905 916.628 -197.214 911.218C-197.604 910.699 -198.154 910.321 -198.779 910.143C-199.404 909.964 -200.07 909.995 -200.675 910.23C-201.295 910.504 -201.802 910.983 -202.11 911.586C-202.418 912.19 -202.508 912.881 -202.366 913.543C-199.788 922.206 -195.435 930.237 -189.582 937.123C-180.447 948.263 -163.174 962.919 -132.646 969.548C-123.431 976.539 -112.759 981.364 -101.423 983.662C-91.8237 985.651 -81.9505 985.947 -72.2492 984.537C-64.3473 983.521 -56.7277 980.937 -49.8372 976.938C-51.6165 981.41 -53.0087 986.028 -53.9984 990.738C-54.1361 991.468 -53.9967 992.222 -53.6075 992.854C-53.2183 993.486 -52.6073 993.95 -51.8941 994.155L-51.7184 994.192C-51.0241 994.339 -50.3001 994.233 -49.6769 993.894C-49.0536 993.555 -48.5719 993.004 -48.3183 992.341C-48.3183 992.341 -44.2703 982.553 -23.5465 971.479C-13.4538 966.086 -7.78578 956.274 -7.18107 943.153C-6.98184 938.136 -7.41326 933.113 -8.46526 928.203C-4.9329 927 -1.81359 924.821 0.531345 921.918C1.94892 920.358 2.99589 918.498 3.59421 916.476C4.19253 914.455 4.32676 912.325 3.98685 910.244C3.33417 907.015 1.84053 904.016 -0.343 901.55C1.04785 901.22 2.67174 900.829 4.38815 900.347C5.04473 900.192 5.77899 900.017 6.45041 899.791L6.41332 899.967L7.19952 899.546C17.1012 896.758 26.8108 893.328 36.2668 889.278C36.5305 889.196 36.7862 889.091 37.0308 888.963C43.2557 886.362 49.7749 883.237 56.5885 879.587C56.9351 879.371 57.2947 879.178 57.6652 879.007C64.3524 875.317 71.1934 871.073 78.0532 866.393L80.3529 864.713C82.3359 863.664 84.4742 862.574 86.9159 861.438C92.2248 858.889 98.6212 856.056 105.537 853.369L105.863 853.218C112.296 850.906 119.267 848.304 126.361 846.169C126.819 846.082 127.265 845.883 127.653 845.781C131.582 844.555 135.422 843.751 139.32 842.666C143.219 841.581 147.029 840.917 150.588 840.054C154.146 839.19 157.884 838.695 161.243 838.083C164.601 837.471 167.845 837.055 170.828 836.657C173.811 836.259 176.569 835.887 179.028 835.709L185.337 835.206C187.952 834.987 189.734 834.887 190.489 834.789L185.361 834.918ZM-26.3231 966.379C-32.5519 969.604 -38.392 973.53 -43.7297 978.08C-41.9064 973.49 -39.4164 969.193 -36.3401 965.328V965.328C-32.6736 960.692 -30.0185 955.34 -28.5458 949.615C-28.3837 948.848 -28.5306 948.048 -28.9547 947.388C-29.3787 946.729 -30.0457 946.263 -30.811 946.091C-31.5821 945.948 -32.3788 946.114 -33.0281 946.554C-33.6775 946.994 -34.1272 947.672 -34.2798 948.442C-34.3317 948.688 -39.7163 974.194 -73.1189 978.922C-88.1408 981.087 -103.468 978.783 -117.189 972.297C-68.5927 977.125 -44.5575 950.712 -40.1519 929.844C-40.0209 929.446 -39.9753 929.025 -40.0181 928.608C-40.0609 928.191 -40.191 927.788 -40.4001 927.425C-40.6091 927.062 -40.8923 926.747 -41.2313 926.501C-41.5702 926.255 -41.9573 926.083 -42.3672 925.996C-42.7771 925.91 -43.2006 925.911 -43.6102 925.999C-44.0197 926.087 -44.4061 926.261 -44.744 926.508C-45.082 926.756 -45.3639 927.072 -45.5715 927.436C-45.779 927.8 -45.9076 928.203 -45.9487 928.62C-50.2876 949.172 -76.4495 975.577 -130.764 964.11C-159.924 957.954 -176.256 944.23 -184.842 933.794C-187.232 930.959 -189.365 927.917 -191.217 924.705C-188.691 926.351 -186.013 927.752 -183.219 928.888C-166.959 935.477 -150.074 931.812 -136.505 925.943L-136.153 926.017C-135.48 926.156 -134.779 926.057 -134.169 925.737C-133.56 925.418 -133.08 924.897 -132.811 924.264C-130.56 923.161 -128.379 922.044 -126.338 920.896C-79.6548 894.458 -51.8871 909.641 -51.5026 909.906C-50.8158 910.296 -50.0036 910.4 -49.2404 910.198C-48.4772 909.995 -47.8238 909.502 -47.4207 908.823C-47.0689 908.157 -46.9853 907.382 -47.1872 906.657C-47.389 905.932 -47.8608 905.312 -48.5058 904.924C-49.7444 904.185 -79.2348 887.427 -129.313 915.865C-131.899 917.337 -134.526 918.654 -137.052 919.846C-141.402 918.834 -145.511 916.981 -149.149 914.393C-147.256 915.016 -145.301 915.428 -143.317 915.624C-133.4 916.8 -122.617 912.654 -111.407 903.535C-84.0006 881.32 -61.2104 888.443 -60.2286 888.834C-59.4839 889.075 -58.6746 889.017 -57.9718 888.672C-57.269 888.327 -56.7278 887.723 -56.4624 886.987C-56.3334 886.618 -56.2789 886.228 -56.3022 885.838C-56.3254 885.449 -56.4259 885.067 -56.5978 884.717C-56.7697 884.367 -57.0095 884.054 -57.3034 883.797C-57.5973 883.54 -57.9393 883.344 -58.3096 883.221C-65.7655 881.179 -73.5992 880.933 -81.1682 882.505V882.505C-89.4445 879.113 -96.4947 873.286 -101.384 865.796C-95.1944 869.537 -88.2558 871.866 -81.0628 872.619C-66.5902 874.654 -52.4368 878.53 -38.9462 884.152C-38.5103 884.353 -38.0321 884.443 -37.5531 884.416C-37.0742 884.39 -36.609 884.246 -36.1981 883.999C-36.5445 884.501 -36.8628 885.022 -37.1514 885.559C-44.019 897.577 -39.6728 906.715 -35.7232 910.778C-35.4494 914.587 -34.0673 918.233 -31.7472 921.266C-29.427 924.298 -26.2702 926.586 -22.6657 927.847C-21.4444 928.363 -20.1781 928.766 -18.8828 929.049C-17.3781 929.354 -15.8446 929.493 -14.3097 929.464C-13.2551 933.973 -12.8375 938.607 -13.0692 943.231C-13.6154 954.162 -18.1154 962.093 -26.3231 966.379ZM-1.8502 911.471C-1.65074 912.706 -1.74123 913.972 -2.1145 915.167C-2.48778 916.362 -3.13363 917.453 -4.00111 918.356C-6.10504 920.945 -9.08031 922.678 -12.37 923.232L-12.6159 923.18C-15.304 923.548 -18.0416 923.185 -20.5414 922.13C-23.2275 921.265 -25.5718 919.574 -27.2396 917.297C-28.9075 915.021 -29.8136 912.276 -29.8288 909.454C-29.7872 908.974 -29.8683 908.492 -30.0644 908.053C-30.2605 907.613 -30.5653 907.231 -30.9499 906.942C-31.2992 906.685 -38.9924 900.363 -32.1248 888.345C-31.1496 886.348 -29.5382 884.732 -27.544 883.751C-25.5498 882.77 -23.2862 882.48 -21.1092 882.927C-20.2955 883.116 -19.505 883.394 -18.7518 883.755C-17.2631 884.455 -15.9849 885.535 -15.0458 886.886C-16.5827 887.847 -17.7929 889.25 -18.5171 890.912C-19.2412 892.573 -19.4454 894.415 -19.1028 896.195C-18.644 898.549 -17.2728 900.626 -15.2885 901.973C-13.3042 903.32 -10.8676 903.828 -8.51046 903.385L-7.09934 903.133C-4.54041 905.312 -2.70884 908.221 -1.8502 911.471V911.471Z" fill="#34C759" fill-opacity="0.1"/>
</g>
<defs>
<clipPath id="clip0_32_150">
<rect width="414" height="896" rx="24" fill="white"/>
</clipPath>
<clipPath id="clip1_32_150">
<rect width="206" height="206" fill="white" transform="translate(104 345)"/>
</clipPath>
</defs>
</svg>
